<?xml version="1.0" encoding="utf-8"?>
<!-- Generator: Adobe Illustrator 23.0.1, SVG Export Plug-In . SVG Version: 6.00 Build 0)  -->
<svg version="1.1"
	 id="svg2" xmlns:cc="http://creativecommons.org/ns#" xmlns:dc="http://purl.org/dc/elements/1.1/" xmlns:inkscape="http://www.inkscape.org/namespaces/inkscape" xmlns:rdf="http://www.w3.org/1999/02/22-rdf-syntax-ns#" xmlns:sodipodi="http://sodipodi.sourceforge.net/DTD/sodipodi-0.dtd" xmlns:svg="http://www.w3.org/2000/svg"
	 xmlns="http://www.w3.org/2000/svg" xmlns:xlink="http://www.w3.org/1999/xlink" x="0px" y="0px" viewBox="0 0 128 128"
	 style="enable-background:new 0 0 128 128;" xml:space="preserve">
<style type="text/css">
	.st0{fill:#CCD1D1;}
	.st1{fill:#7B8487;}
	.st2{font-family:'HelveticaNeueLTCom-MdIt';}
	.st3{font-size:11.671px;}
</style>
<sodipodi:namedview  bordercolor="#666666" borderopacity="1.0" fit-margin-bottom="0" fit-margin-left="0" fit-margin-right="0" fit-margin-top="0" id="base" inkscape:current-layer="layer1" inkscape:cx="137.38277" inkscape:cy="82.093507" inkscape:document-units="px" inkscape:pageopacity="0.0" inkscape:pageshadow="2" inkscape:window-height="716" inkscape:window-maximized="1" inkscape:window-width="1366" inkscape:window-x="-8" inkscape:window-y="-8" inkscape:zoom="1.979899" pagecolor="#ffffff" showgrid="false">
	</sodipodi:namedview>
<g id="layer1" transform="translate(-266.40354,-245.1312)" inkscape:groupmode="layer" inkscape:label="Layer 1">
	<path id="path3038" inkscape:connector-curvature="0" class="st0" d="M316.9,361.3c-4.3-2.7-41.3-35.9-42.5-38.1
		c-0.6-1-1-4.1-1-6.8c0-6.5,5.5-34.9,7.3-37.6c1-1.5,5.2-3.4,13.1-6.1c6.4-2.2,17.6-6.8,24.7-10.3c7.7-3.8,14.3-6.3,16.2-6.3
		c4.3,0,41,22.9,43,26.9c2.2,4.3,11.6,34.9,11.6,37.9c0,6.7-3.1,8.9-52.5,37.6C327.9,363.8,322.2,364.5,316.9,361.3z M335.8,312.1
		c5.7-2.1,18.4-8.5,20.1-10.1c0.5-0.5-2,0.2-5.8,1.6c-8.2,3.1-9.4,3.1-16.8,0.4c-5.6-2-6-2.1-10.8-0.5c-2.7,0.9-5.8,1.6-6.9,1.6
		c-2.1,0-14.6-8.2-25-16.3c-3.5-2.7-6.4-4.8-6.6-4.6c-0.2,0.2-0.6,2.3-1,4.6l-0.7,4.3h3.8c5.2,0,16,5.5,24.7,12.6
		C322.1,314.7,326,315.8,335.8,312.1L335.8,312.1z M366.4,297.2c4.5-2.9,10.1-8,8.7-8c-0.4,0-2.8,1.6-5.4,3.6s-6.2,4.3-8,5
		c-1.8,0.8-3.3,1.6-3.3,1.9C358.4,301,362.2,299.8,366.4,297.2z"/>
	<path id="path3030" inkscape:connector-curvature="0" class="st1" d="M319.9,359.7c-3.7-1.7-42-35.7-42.9-38.2
		c-0.4-1-0.5-1.9-0.3-2.1s4.6,3.4,9.8,8c14.6,13,23.1,19.7,24.9,19.7c1.3,0,1.9-2.1,2.9-10.8c0.7-5.9,1.7-11.8,2.2-13
		c1.1-2.8,5.1-4.8,7.3-3.5c1.6,0.9,11.9,0.1,16.2-1.2c1.5-0.5,2.3-0.1,2.8,1.2c0.6,1.5,4.6,20.6,4.6,21.9c0,2,12.8-3.9,29-13.5
		c7.8-4.6,11-5.2,8-1.6c-1,1.2-17,10.9-49,29.7C327.7,360.8,324,361.6,319.9,359.7L319.9,359.7z M320.3,264.5
		c9.6-5.1,13.1-6.4,15.2-6c2.6,0.5,20.2,11.6,19.6,12.3c-0.2,0.2-3.6-1.1-7.6-2.7l-7.3-3.1l-2.8,2.7l-2.8,2.7l-3.1-2.6
		c-3.5-2.9-3.8-2.9-15.4,1c-3.8,1.3-7.2,2.3-7.5,2.3C308.2,271.1,313.5,268.1,320.3,264.5L320.3,264.5z"/>
	<text transform="matrix(1.1698 0.9401 -0.6264 0.7795 323.6788 275.6429)" class="st2 st3">FX </text>
	<text transform="matrix(1.1698 0.9401 -0.6264 0.7795 307.1362 280.3095)" class="st2 st3">OSK</text>
</g>
</svg>
